It's the fall of 1969 and winds of a change are blowing across America. But on a remote family farm in the hills of Virginia, a storm of evil has been brewing for years. Now for a group of young people hitchhiking to a rally in D.C., a detour to the nightmare homestead of Staunton's will rip apart their young lives forever. A grisly secret is waiting. The raw terror is growing. And the clan's brutal harvest is about to begin.
 
http://www.imdb.com/title/tt1118693/ 
 
http://leetleech.org/images/15316738654552604821.png 
http://leetleech.org/images/82386536523629354980.png 
http://leetleech.org/images/27220533588509970065.png 
http://leetleech.org/images/69470518543953032492.png

Cast

Kathy Lamkin ... Louise Staunton
Cristen Coppen ... Jordan
David Rountree ... Cole
Kiko Ellsworth ... Boone
Christine Carlo ... Raina
Paula Rhodes ... Trish
Charlie Bodin ... Quintin
B.J. Hendricks ... Buddy
Cooper Huckabee ... Burgh
Sherry Weston ... Geraldine Staunton


General
Complete name : Staunton Hill 2009 DVDRip Xvid BigPerm LKRG\SH_LKRG.avi
Format : AVI
Format/Info : Audio Video Interleave
Format profile : OpenDML
File size : 1.10 GiB
Duration : 1h 29mn
Overall bit rate : 1 758 Kbps

Video
ID : 0
Format : MPEG-4 Visual
Format profile : Advanced Simple@L5
Format settings, BVOP : Yes
Format settings, QPel : No
Format settings, GMC : No warppoints
Format settings, Matrix : Default (H.263)
Codec ID : XVID
Codec ID/Hint : XviD
Duration : 1h 29mn
Bit rate : 1 304 Kbps
Width : 704 pixels
Height : 396 pixels
Display aspect ratio : 16:9
Frame rate : 23.976 fps
Color space : YUV
Chroma subsampling : 4:2:0
Bit depth : 8 bits
Scan type : Progressive
Compression mode : Lossy
Bits/(Pixel*Frame) : 0.195
Stream size : 835 MiB (74%)
Writing library : XviD 1.2.1 (UTC 2008-12-04)

Audio
ID : 1
Format : AC-3
Format/Info : Audio Coding 3
Mode extension : CM (complete main)
Codec ID : 2000
Duration : 1h 29mn
Bit rate mode : Constant
Bit rate : 448 Kbps
Channel(s) : 6 channels
Channel positions : Front: L C R, Side: L R, LFE
Sampling rate : 48.0 KHz
Bit depth : 16 bits
Compression mode : Lossy
Video delay : 42ms
Stream size : 287 MiB (25%)
Alignment : Split accross interleaves
Interleave, duration : 500 ms (11.99 video frames)
Interleave, preload duration : 500 ms
Language : English


All thanks to BigPerm
